<?xml version="1.0" standalone="no"?>
<!DOCTYPE svg PUBLIC "-//W3C//DTD SVG 20010904//EN"
 "http://www.w3.org/TR/2001/REC-SVG-20010904/DTD/svg10.dtd">
<svg version="1.0" xmlns="http://www.w3.org/2000/svg"
 width="1080.000000pt" height="608.000000pt" viewBox="0 0 1080.000000 608.000000"
 preserveAspectRatio="xMidYMid meet">

<g transform="translate(0.000000,608.000000) scale(0.100000,-0.100000)"
fill="#000000" stroke="none">
<path d="M0 3040 l0 -3040 5400 0 5400 0 0 3040 0 3040 -5400 0 -5400 0 0
-3040z m3825 1001 c3 -5 0 -21 -6 -35 -10 -21 -19 -26 -51 -26 l-38 0 0 -81
c0 -81 -14 -134 -30 -109 -6 9 -13 3 -26 -21 -18 -33 -19 -33 -22 -10 -6 38 8
132 19 126 5 -4 9 0 9 8 0 18 36 92 58 118 26 32 75 49 87 30z m962 -6 c11 -8
23 -24 26 -35 8 -33 -35 -26 -56 9 -9 16 -17 32 -17 35 0 11 25 6 47 -9z m393
-47 c0 -53 14 -57 23 -8 4 23 8 -117 11 -415 l1 -120 -37 -3 -38 -3 0 248 c0
278 6 353 26 353 10 0 14 -15 14 -52z m137 15 c-3 -10 -5 -4 -5 12 0 17 2 24
5 18 2 -7 2 -21 0 -30z m77 20 c3 -10 9 -25 12 -33 5 -13 4 -13 -5 0 -7 10
-11 11 -11 3 0 -7 -7 -13 -15 -13 -10 0 -15 10 -15 30 0 33 23 42 34 13z m73
5 c19 -23 11 -48 -14 -48 -19 0 -23 5 -23 30 0 31 19 40 37 18z m67 -4 c3 -9
6 -25 6 -36 0 -14 5 -18 15 -14 13 5 15 -29 15 -265 l0 -270 -37 3 -38 3 -3
245 c-2 157 1 264 8 298 12 53 23 65 34 36z m76 -14 c0 -20 -5 -30 -15 -30
-15 0 -21 40 -8 53 14 15 23 6 23 -23z m83 9 c18 -20 18 -21 -2 -14 -16 5 -20
3 -15 -9 4 -10 1 -16 -9 -16 -11 0 -15 8 -13 28 2 15 4 28 5 30 3 7 19 -1 34
-19z m57 -15 c0 -15 -6 -24 -16 -24 -13 0 -14 3 -5 14 9 11 9 15 0 18 -7 2 -9
10 -5 16 11 18 26 4 26 -24z m-867 -1 c6 -31 -1 -55 -14 -48 -10 7 -9 75 1 75
4 0 10 -12 13 -27z m-143 -18 c0 -5 -5 -3 -10 5 -5 8 -10 20 -10 25 0 6 5 3
10 -5 5 -8 10 -19 10 -25z m1156 21 c10 -11 11 -15 2 -18 -8 -3 -5 -14 10 -35
37 -53 26 -72 -17 -28 -12 14 -27 22 -32 19 -5 -3 -9 12 -8 33 0 21 3 32 6 26
2 -7 9 -13 14 -13 4 0 6 7 3 15 -8 19 3 19 22 1z m-937 -46 c22 -42 29 -124
12 -135 -5 -3 -11 0 -14 7 -2 7 -3 5 -1 -6 4 -28 -23 -63 -59 -75 l-31 -11 33
-34 c33 -34 126 -240 115 -257 -3 -5 -20 -9 -38 -9 -29 0 -35 5 -53 48 -12 26
-24 58 -28 72 -14 47 -55 119 -77 134 -14 10 -43 16 -75 16 l-53 0 0 -135 0
-135 -36 0 -35 0 5 208 c4 215 14 317 30 317 11 0 34 -110 35 -162 l1 -33 58
0 c91 0 123 23 163 115 16 39 16 39 18 80 0 19 3 35 5 35 2 0 13 -18 25 -40z
m1300 -143 c1 -27 5 -46 10 -43 40 25 40 -148 1 -230 -40 -82 -143 -124 -252
-104 -137 26 -175 106 -170 353 3 148 10 162 49 109 19 -25 22 -45 24 -153 2
-145 18 -197 71 -229 44 -26 122 -27 165 0 57 35 67 67 71 240 2 85 6 162 9
170 8 20 22 -50 22 -113z m-1349 103 c0 -5 -2 -10 -4 -10 -3 0 -8 5 -11 10 -3
6 -1 10 4 10 6 0 11 -4 11 -10z m1628 -292 l-3 -183 -32 -3 -33 -3 2 138 c1
76 3 119 5 95 2 -23 8 -40 14 -37 5 4 10 -4 10 -17 3 -57 17 43 18 132 1 68 4
90 12 78 5 -10 8 -92 7 -200z m-2363 -46 c11 -80 25 -72 26 15 2 95 15 236 19
208 2 -11 4 -83 4 -160 l1 -140 128 -3 128 -3 -3 -27 -3 -27 -140 -3 c-77 -1
-150 0 -162 3 -23 5 -23 6 -21 193 1 166 2 176 9 92 4 -52 10 -119 14 -148z
m135 189 c15 -29 12 -41 -10 -41 -16 0 -20 7 -20 30 0 34 14 39 30 11z m80
-22 c0 -12 -7 -19 -20 -19 -14 0 -20 7 -20 23 0 13 3 27 7 30 10 11 33 -13 33
-34z m50 6 c0 -16 -6 -25 -15 -25 -8 0 -15 8 -15 18 0 14 2 15 10 2 8 -12 10
-11 10 8 0 12 2 22 5 22 3 0 5 -11 5 -25z m2319 -215 c-1 -89 -2 -93 -14 -64
-10 22 -12 54 -8 108 8 106 23 76 22 -44z m61 -84 c-9 -8 -11 4 -6 49 7 85 9
88 13 21 3 -36 0 -63 -7 -70z m-3090 -8 c0 -5 -9 -8 -20 -8 -27 0 -60 55 -60
100 l0 35 40 -60 c22 -33 40 -63 40 -67z m330 -338 c0 -136 -2 -160 -15 -160
-13 0 -15 24 -15 160 0 136 2 160 15 160 13 0 15 -24 15 -160z m696 139 c10
-17 -23 -46 -37 -32 -7 7 -9 19 -6 27 7 18 33 21 43 5z m1402 -11 c3 -13 -3
-18 -22 -18 -20 0 -26 5 -26 21 0 15 5 20 22 17 13 -2 24 -11 26 -20z m-3147
2 c10 -6 19 -20 19 -31 0 -18 -2 -19 -30 -4 -16 8 -42 15 -57 15 -27 1 -27 1
-9 15 23 18 50 19 77 5z m2689 -5 c0 -11 -12 -15 -45 -15 l-45 0 0 -135 c0
-128 -1 -135 -20 -135 -19 0 -20 7 -20 135 l0 135 -45 0 c-33 0 -45 4 -45 15
0 12 19 15 110 15 91 0 110 -3 110 -15z m-1520 -35 c0 -27 3 -30 30 -30 20 0
30 -5 30 -15 0 -10 -10 -15 -30 -15 l-30 0 0 -64 c0 -80 6 -96 36 -96 15 0 24
-6 24 -15 0 -20 -54 -20 -74 1 -12 11 -16 36 -16 94 0 69 -2 78 -20 83 -11 3
-20 10 -20 16 0 6 9 11 20 11 16 0 20 7 20 30 0 20 5 30 15 30 10 0 15 -10 15
-30z m-692 -36 c12 -8 22 -24 22 -36 0 -19 -2 -18 -34 9 -19 15 -35 31 -35 36
-1 12 23 8 47 -9z m1182 -16 c0 -11 -5 -16 -11 -13 -19 12 -55 -4 -67 -30 -7
-14 -12 -55 -12 -90 0 -51 -3 -65 -15 -65 -12 0 -15 19 -15 110 0 91 3 110 15
110 8 0 15 -7 15 -17 0 -14 2 -15 18 -1 36 32 72 30 72 -4z m293 4 c24 -21 26
-202 2 -202 -8 0 -15 5 -15 10 0 7 -6 7 -19 0 -31 -16 -79 -12 -101 10 -46 46
-1 110 80 110 25 0 30 4 30 25 0 35 -31 49 -76 35 -20 -7 -38 -10 -41 -7 -19
19 54 49 97 40 14 -3 33 -13 43 -21z m355 -8 c16 -18 22 -36 20 -58 l-3 -31
-72 -3 c-78 -3 -86 -10 -57 -51 15 -21 23 -23 70 -19 38 3 54 1 54 -8 0 -17
-24 -24 -80 -24 -42 0 -52 4 -74 31 -49 58 -28 162 38 190 33 13 79 2 104 -27z
m506 30 c27 -11 18 -34 -13 -34 -43 0 -61 -35 -61 -120 0 -63 -2 -70 -20 -70
-19 0 -20 7 -20 110 0 103 1 110 20 110 12 0 20 -7 20 -16 0 -13 5 -12 26 5
30 24 27 23 48 15z m182 -9 c25 -7 47 -52 42 -87 -3 -21 -8 -23 -75 -26 -78
-3 -86 -10 -57 -51 15 -21 23 -23 70 -19 38 3 54 1 54 -8 0 -16 -24 -24 -76
-24 -34 0 -51 6 -69 24 -53 53 -39 156 25 188 19 10 42 16 50 14 8 -3 25 -7
36 -11z m-2206 -12 c0 -10 1 -51 2 -91 0 -41 4 -69 8 -62 5 9 9 8 12 -2 8 -19
-16 -40 -31 -25 -13 13 -15 197 -2 197 6 0 10 -8 11 -17z m152 -38 c7 -84 -2
-165 -18 -165 -16 0 -19 26 -4 35 6 3 10 11 10 17 0 5 -13 -4 -29 -21 -27 -28
-61 -42 -61 -23 0 4 16 20 35 35 31 24 35 33 35 72 0 28 4 45 12 45 9 0 9 3 0
12 -16 16 -15 48 2 48 9 0 15 -17 18 -55z m490 44 c30 -16 51 -74 43 -120 -13
-77 -108 -116 -168 -69 -48 38 -44 150 6 185 25 17 89 20 119 4z m308 -99 c0
-91 -3 -110 -15 -110 -12 0 -15 19 -15 110 0 91 3 110 15 110 12 0 15 -19 15
-110z m1400 0 c0 -87 -3 -110 -14 -110 -22 0 -26 24 -19 125 4 70 10 95 20 95
10 0 13 -24 13 -110z m110 94 c0 -14 2 -14 22 0 29 21 82 20 99 0 15 -18 30
-136 22 -176 -3 -16 -12 -28 -19 -28 -11 0 -14 19 -14 80 0 66 -3 83 -20 100
-21 21 -42 18 -72 -8 -14 -12 -18 -31 -18 -94 0 -63 -3 -78 -15 -78 -8 0 -15
6 -16 13 0 6 -2 32 -3 57 -5 77 5 150 20 150 8 0 14 -7 14 -16z m354 -6 c23
-32 23 -198 1 -198 -8 0 -15 4 -15 10 0 6 -9 6 -26 0 -67 -26 -123 4 -109 57
10 43 22 51 81 59 43 5 54 10 54 24 0 42 -43 60 -94 40 -20 -7 -26 -6 -26 4 0
19 16 24 72 25 38 1 50 -3 62 -21z m126 8 c0 -13 4 -13 28 0 40 21 72 18 72
-6 0 -18 -3 -19 -21 -9 -18 9 -26 7 -48 -9 -23 -17 -26 -27 -27 -78 -2 -81 -3
-86 -14 -79 -5 3 -10 2 -10 -4 0 -5 6 -12 13 -14 7 -4 6 -6 -4 -6 -13 -1 -17
9 -18 47 -1 26 -2 56 -3 67 -5 59 3 105 17 105 8 0 15 -6 15 -14z m230 -1 c0
-8 -4 -15 -10 -15 -5 0 -10 7 -10 15 0 8 5 15 10 15 6 0 10 -7 10 -15z m-3715
-15 c23 -25 26 -93 5 -97 -11 -3 -19 10 -28 43 -8 31 -19 48 -32 51 -30 8 -24
23 8 23 16 0 37 -9 47 -20z m3641 -18 c-14 -14 -16 -14 -16 -1 0 20 23 44 29
28 2 -6 -4 -18 -13 -27z m-3762 7 c-12 -13 -21 -42 -24 -78 -4 -41 -9 -56 -20
-56 -12 0 -15 13 -15 60 0 59 1 60 35 77 45 23 47 22 24 -3z m243 3 c8 -5 9
-13 3 -22 -6 -8 -10 -34 -10 -57 0 -44 -7 -52 -28 -31 -13 13 -17 100 -5 111
8 9 25 9 40 -1z m3730 -114 c-2 -24 -4 -5 -4 42 0 47 2 66 4 43 2 -24 2 -62 0
-85z m813 86 c0 -9 -7 -14 -17 -12 -25 5 -28 28 -4 28 12 0 21 -6 21 -16z
m-4260 -45 c0 -5 -4 -9 -10 -9 -5 0 -10 7 -10 16 0 8 5 12 10 9 6 -3 10 -10
10 -16z m-173 -46 c-3 -10 -5 -4 -5 12 0 17 2 24 5 18 2 -7 2 -21 0 -30z
m3383 23 c0 -3 -4 -8 -10 -11 -5 -3 -10 -1 -10 4 0 6 5 11 10 11 6 0 10 -2 10
-4z m-3840 -41 c0 -8 -7 -15 -15 -15 -16 0 -20 12 -8 23 11 12 23 8 23 -8z
m3850 -9 c0 -8 -7 -16 -15 -20 -13 -4 -14 -2 -5 14 13 23 20 26 20 6z m-3640
-15 c0 -10 -24 -21 -48 -21 -13 0 -12 3 4 15 21 16 44 19 44 6z"/>
<path d="M4952 3915 c0 -16 2 -22 5 -12 2 9 2 23 0 30 -3 6 -5 -1 -5 -18z"/>
<path d="M4860 3035 c-19 -23 -8 -50 23 -53 35 -4 57 13 57 44 0 21 -5 24 -34
24 -18 0 -39 -7 -46 -15z"/>
<path d="M5210 3130 c-36 -36 -26 -50 35 -50 48 0 55 3 55 19 0 20 -35 51 -57
51 -7 0 -22 -9 -33 -20z"/>
<path d="M5920 3130 c-37 -37 -26 -50 40 -50 67 0 76 12 37 48 -29 27 -51 28
-77 2z"/>
<path d="M4340 3130 c-25 -25 -28 -111 -4 -134 24 -24 80 -20 98 6 31 44 14
131 -28 142 -34 9 -45 7 -66 -14z"/>
<path d="M6518 3039 c-24 -14 -23 -46 2 -59 28 -15 80 15 80 47 0 19 -5 23
-32 23 -18 0 -41 -5 -50 -11z"/>
</g>
</svg>
